<svg width="353" height="181" xmlns="http://www.w3.org/2000/svg">

 <g>
  <title>Layer 1</title>
  <g transform="scale(0.824163) matrix(0.173471, 0, 0, 0.173471, -0.000589148, -0.216492)" id="imagebot_2">
   <path id="imagebot_3" d="M330.08,70.199C333.158,69.454 332.002,72.943 335.08,72.199C336.72,74.339 332.531,77.053 334.08,82.198L332.247,81.698L331.08,83.198C328.845,82.766 330.675,78.269 330.08,76.198L330.524,73.475L328.08,72.199L328.08,71.199L329.58,71.699L330.08,70.199z"/>
   <path id="imagebot_4" d="M 332.92 83.698 L 334.087 82.198 C 340.956 86.327 346.928 91.353 353.084 96.196 C 353.781 101.225 351.388 103.166 352.084 108.194 C 321.438 110.975 293.414 114.384 264.096 118.193 C 254.866 119.392 244.237 119.868 236.1 122.192 C 224.008 125.648 219.633 134.352 205.104 136.191 C 198.005 137.088 192.749 134.396 185.106 135.191 C 175.863 136.152 164.821 142.529 155.109 146.189 C 126.205 157.085 96.018 168.953 70.12 182.185 C 62.344 174.209 57.884 163.682 52.122 154.188 C 35.432 126.686 17.114 98.332 0.129 70.2 C -0.766 66.971 3.39 68.795 4.129 67.2 L 5.629 67.7 L 7.129 67.2 C 27.996 101.659 49.492 135.489 71.121 169.19 C 71.716 167.12 69.885 162.623 72.121 162.191 L 73.288 163.691 L 75.121 163.191 C 76.448 167.576 73.231 172.556 74.121 173.19 C 110.807 155.216 138.718 128.466 194.101 129.195 C 193.253 117.683 199.347 113.111 203.099 106.198 C 201.517 106.115 199.287 106.679 199.101 105.198 L 199.601 103.699 L 199.101 102.199 C 199.952 102.384 200.043 101.809 200.101 101.199 L 201.456 99.985 L 201.101 98.199 C 204.965 98.335 205.043 102.256 208.099 103.199 L 209.314 104.555 L 211.099 104.199 C 210.431 108.53 206.472 109.57 206.099 114.197 C 210.81 113.908 213.179 111.278 219.097 112.198 C 223.039 113.256 222.909 118.386 225.097 121.196 C 244.624 97.063 292.677 101.456 335.087 100.199 C 333.899 94.388 330.933 90.355 331.087 83.202 L 332.937 83.697 L 332.92 83.698 z"/>
   <path id="imagebot_5" d="M5.958,65.7L4.125,66.2C4.208,64.617 3.644,62.386 5.125,62.2L6.292,63.7L8.125,63.2C8.042,64.783 8.606,67.012 7.125,67.2L5.958,65.7z"/>
   <g id="imagebot_6" fill="none" stroke-linecap="round" stroke="#000000">
    <path id="imagebot_7" d="M332.25,81.698C332.472,82.365 332.694,83.031 332.916,83.698" stroke-width="3.1619"/>
    <path id="imagebot_8" d="M5.625,67.7C5.665,67.033 5.809,66.367 5.958,65.7" stroke-width="3.0818"/>
    <path id="imagebot_9" d="M6.292,63.7C7.136,58.762 7.877,52.432 13.024,50.1" stroke-width="3.3387"/>
    <path id="imagebot_10" d="M13.024,50.102C44.302,29.346 88.078,-3.624 124.474,26.99" stroke-width="2.2807"/>
    <path id="imagebot_11" d="M124.47,26.99C146,-8.966 193.06,8.878 227.44,1.248C261.25,25.011 296.54,47.15 329.58,71.7" stroke-width="2.328"/>
    <path id="imagebot_12" d="M209.31,104.55C236.872,66.875 290.224,80.436 330.53,73.475" stroke-width="3.9899"/>
    <path id="imagebot_13" d="M124.47,26.99C150.523,50.881 175.291,76.282 201.46,99.98" stroke-width="3.0382"/>
    <path id="imagebot_14" d="M13.024,50.102C35.041,81.032 53.356,114.914 75.116,146.19" stroke-width="2.6156"/>
    <path id="imagebot_15" d="M75.117,146.19C114.904,128.065 153.037,97.513 199.597,103.696" stroke-width="2.9805"/>
    <path id="imagebot_16" d="M75.117,146.19C74.561,152.026 74.187,157.883 73.284,163.688" stroke-width="3.7282"/>
   </g>
  </g>
 </g>
 <metadata>image/svg+xmlOpenclipartopen book2007-10-30T01:35:20Open book. Black and white drawing.https://openclipart.org/detail/7555/open-book-by-johnny_automaticjohnny_automaticblack and whitebookreading</metadata>
</svg>